# xmcd
#
# Track frame offsets:
#  150
#  12621
#  33912
#  52202
#  70099
#  86818
#  100005
#  121001
#  134544
#  148564
#  167481
#
# Disc length: 2517 seconds
#
# Revision: 1
# Processed by: cddbd v1.5.1PL0 Copyright (c) Steve Scherf et al.
# Submitted via: Collectorz.com_Music_Collector 6.9
#
DISCID=9409d30b
DTITLE=Jerome Godboo - Pain and the Glory
DYEAR=2004
DGENRE=Blues -  Blues Harmonica
TTITLE0=My Little Girl
TTITLE1=The Night I Slept Outside
TTITLE2=Ventilator Blues
TTITLE3=Goddamn Money
TTITLE4=Strange Brew
TTITLE5=Strange Things
TTITLE6=Pain and The Glory
TTITLE7=Evil
TTITLE8=Help Me
TTITLE9=I Gave You More
TTITLE10=Evening
EXTD=
EXTT0=
EXTT1=
EXTT2=
EXTT3=
EXTT4=
EXTT5=
EXTT6=
EXTT7=
EXTT8=
EXTT9=
EXTT10=
PLAYORDER=
